<?xml version="1.0" standalone="no"?>
<!DOCTYPE svg PUBLIC "-//W3C//DTD SVG 20010904//EN"
 "http://www.w3.org/TR/2001/REC-SVG-20010904/DTD/svg10.dtd">
<svg version="1.0" xmlns="http://www.w3.org/2000/svg"
 width="4252.000000pt" height="1417.000000pt" viewBox="0 0 4252.000000 1417.000000"
 preserveAspectRatio="xMidYMid meet">
<metadata>
Created by potrace 1.16, written by Peter Selinger 2001-2019
</metadata>
<g transform="translate(0.000000,1417.000000) scale(0.100000,-0.100000)"
fill="#000000" stroke="none">
<path d="M17800 7045 l0 -6345 105 0 105 0 0 6345 0 6345 -105 0 -105 0 0
-6345z"/>
<path d="M31682 13237 l-42 -43 0 -2358 0 -2358 41 -49 41 -49 453 0 452 0 42
45 41 45 0 566 c0 312 3 564 7 560 4 -4 129 -278 278 -609 l271 -602 549 -2
550 -3 36 70 37 71 -455 825 -455 825 441 662 c242 364 441 665 441 669 0 5
-14 39 -31 78 l-32 70 -566 0 -566 0 -238 -423 c-130 -233 -243 -432 -252
-442 -13 -18 -14 122 -15 1193 l0 1214 -36 44 -36 44 -457 0 -457 0 -42 -43z"/>
<path d="M9960 13264 c-41 -2 -149 -8 -240 -14 -2143 -138 -4093 -1267 -5210
-3018 -807 -1267 -1112 -2764 -860 -4237 309 -1807 1448 -3397 3121 -4355 784
-449 1707 -749 2609 -850 312 -34 479 -43 810 -43 427 -1 773 27 1165 93 1763
297 3323 1257 4331 2666 566 791 932 1697 1068 2645 44 304 59 518 59 854 0
336 -15 550 -59 854 -240 1668 -1184 3171 -2624 4180 -1008 706 -2192 1121
-3450 1210 -159 12 -601 21 -720 15z m-3459 -2427 c294 -76 516 -258 639 -521
21 -44 46 -111 56 -147 l17 -66 109 91 c495 414 1002 615 1655 658 475 30 939
-50 1310 -227 283 -135 544 -343 728 -577 l59 -76 111 106 c584 565 1289 824
2108 774 431 -27 749 -105 1067 -263 306 -152 524 -330 709 -576 248 -331 351
-663 403 -1298 10 -125 13 -605 13 -2215 0 -1952 -1 -2061 -18 -2165 -49 -287
-139 -476 -305 -637 -192 -187 -408 -275 -698 -285 -236 -9 -387 22 -564 113
-291 149 -470 410 -542 786 -21 112 -21 128 -29 1893 -4 979 -10 1800 -14
1825 -3 25 -13 96 -21 158 -27 209 -89 352 -206 477 -76 81 -143 121 -258 152
-101 28 -396 25 -504 -5 -102 -28 -246 -97 -343 -164 -151 -104 -311 -291
-377 -440 -64 -145 -109 -380 -147 -778 -8 -75 -14 -628 -18 -1580 -8 -1631
-3 -1527 -78 -1752 -111 -336 -355 -564 -701 -655 -143 -37 -385 -44 -531 -14
-423 88 -706 382 -795 827 -33 168 -36 294 -36 1844 0 1722 -7 1964 -60 2212
-48 223 -171 405 -316 469 -93 42 -146 51 -319 56 -490 15 -812 -127 -970
-428 -108 -205 -192 -528 -229 -884 -8 -77 -18 -160 -21 -185 -4 -25 -10 -697
-14 -1495 -6 -1338 -8 -1457 -25 -1545 -88 -461 -344 -751 -761 -861 -103 -27
-337 -37 -456 -19 -445 65 -769 380 -863 840 -36 178 -37 253 -33 3000 3 2480
4 2702 20 2777 54 260 144 433 305 584 127 119 287 197 477 233 121 23 342 15
466 -17z"/>
<path d="M30290 13080 c-196 -34 -365 -187 -436 -395 -24 -69 -28 -96 -28
-200 -1 -141 19 -221 81 -323 227 -374 707 -383 945 -18 62 96 90 200 91 331
1 190 -53 324 -178 450 -131 130 -300 185 -475 155z"/>
<path d="M19405 13008 c-3 -18 -104 -1023 -225 -2233 -121 -1210 -222 -2221
-226 -2246 -5 -42 -3 -49 38 -97 l43 -52 485 0 486 0 99 1265 c55 695 103
1261 106 1257 4 -4 118 -573 255 -1264 l249 -1258 387 0 c360 0 387 1 391 18
3 9 110 571 237 1247 128 677 235 1233 239 1237 3 4 50 -536 105 -1200 54
-664 101 -1228 104 -1254 l5 -48 503 0 502 0 45 53 44 52 -241 2275 -242 2275
-681 3 -681 2 -6 -27 c-55 -272 -296 -1637 -327 -1853 -7 -47 -15 -88 -18 -92
-3 -4 -19 77 -35 180 -29 196 -213 1297 -267 1610 l-32 182 -668 0 -668 0 -6
-32z"/>
<path d="M24631 11739 c-197 -30 -378 -148 -522 -338 -116 -155 -232 -437
-283 -692 -47 -229 -58 -399 -53 -754 5 -334 18 -469 66 -680 117 -517 355
-855 677 -961 80 -26 102 -29 224 -29 112 0 147 4 205 22 110 35 190 88 303
200 56 57 105 103 107 103 3 0 5 -32 5 -72 0 -71 0 -73 42 -115 l42 -43 446 0
446 0 42 43 42 43 0 1550 0 1550 -43 42 -43 42 -451 0 -451 0 -41 -49 c-39
-46 -41 -53 -41 -112 l0 -64 -73 76 c-160 170 -286 232 -498 243 -46 3 -113 0
-148 -5z m554 -1061 c62 -42 111 -142 140 -283 37 -180 35 -580 -4 -768 -23
-113 -72 -228 -113 -262 -80 -67 -203 -45 -265 47 -86 128 -118 300 -117 628
1 406 68 615 212 661 40 13 112 2 147 -23z"/>
<path d="M35680 11736 c-262 -47 -445 -140 -621 -315 -232 -233 -375 -554
-435 -981 -38 -273 -38 -632 1 -895 83 -555 353 -969 760 -1161 301 -143 725
-149 1060 -14 377 150 660 523 765 1010 38 170 51 292 57 516 18 667 -128
1169 -435 1495 -159 169 -345 273 -592 331 -111 26 -446 34 -560 14z m349
-1067 c20 -11 51 -41 68 -67 71 -106 96 -256 96 -582 0 -489 -76 -690 -262
-693 -157 -2 -237 160 -262 539 -18 260 9 562 60 680 23 52 78 113 116 130 48
21 141 17 184 -7z"/>
<path d="M27091 11601 l-41 -49 0 -401 0 -401 41 -45 41 -45 328 -2 328 -3
-424 -1073 -425 -1074 39 -61 39 -62 1074 -3 1073 -2 43 42 43 42 0 411 0 411
-43 42 -42 42 -357 2 -356 3 424 1065 c233 586 424 1071 424 1078 0 6 -17 39
-37 72 l-38 60 -1047 0 -1046 0 -41 -49z"/>
<path d="M29891 11605 l-41 -45 0 -1547 0 -1547 42 -43 42 -43 452 0 452 0 41
46 41 47 0 1541 0 1541 -41 48 -41 47 -453 0 -452 0 -42 -45z"/>
<path d="M34712 7663 l-42 -57 0 -2954 0 -2954 46 -59 47 -59 463 0 463 0 45
59 45 59 4 1238 c3 1110 5 1246 20 1307 28 116 69 161 159 173 83 11 139 -41
175 -161 16 -56 18 -148 21 -1310 l3 -1251 44 -57 45 -57 465 0 464 0 45 59
46 59 0 1547 c0 1020 -4 1579 -11 1643 -51 472 -241 780 -543 879 -69 22 -99
26 -206 27 -105 1 -137 -3 -200 -23 -177 -55 -323 -161 -483 -351 l-47 -55 0
1123 0 1124 -42 54 -43 54 -470 0 -471 0 -42 -57z"/>
<path d="M22145 7470 c-117 -19 -202 -67 -297 -169 -81 -86 -123 -158 -164
-279 -109 -320 -42 -675 171 -900 122 -130 266 -186 419 -164 92 14 181 52
248 108 109 91 206 250 249 410 32 114 32 364 1 477 -55 201 -179 379 -322
459 -90 51 -208 73 -305 58z"/>
<path d="M18991 7355 l-41 -54 0 -2803 0 -2803 46 -57 46 -58 483 0 484 0 45
59 46 59 0 1051 0 1051 398 0 397 1 43 56 42 57 0 579 0 579 -42 59 -43 58
-397 1 -398 0 0 395 0 395 454 0 455 0 45 59 46 59 0 599 0 599 -42 57 -43 56
-991 1 -992 0 -41 -55z"/>
<path d="M26623 7351 l-43 -59 0 -637 0 -637 46 -59 47 -59 288 0 289 0 0
-2102 0 -2103 46 -58 46 -57 489 0 489 0 45 58 45 57 0 2103 0 2102 294 0 294
0 46 62 46 62 0 635 0 636 -45 58 -45 57 -1168 0 -1167 -1 -42 -58z"/>
<path d="M30335 5799 c-153 -20 -343 -99 -464 -192 -337 -260 -574 -762 -655
-1389 -43 -327 -41 -801 4 -1155 73 -567 255 -1007 530 -1284 190 -191 380
-283 642 -310 196 -21 391 12 563 96 111 53 197 118 295 221 189 198 337 511
421 889 16 72 29 143 29 158 0 16 -17 57 -37 92 l-38 65 -436 0 -435 0 -13
-92 c-14 -108 -43 -178 -97 -238 -45 -50 -87 -70 -144 -70 -112 0 -186 103
-229 318 -21 103 -42 292 -34 305 2 4 334 7 736 7 l732 1 43 59 44 60 -11 252
c-32 723 -99 1099 -257 1428 -94 197 -180 316 -332 462 -217 208 -439 312
-687 323 -55 2 -131 0 -170 -6z m250 -1149 c36 -22 76 -90 98 -167 16 -54 42
-218 51 -315 l5 -58 -250 0 c-192 0 -249 3 -249 13 0 50 23 246 36 307 18 82
54 168 82 193 56 51 167 64 227 27z"/>
<path d="M33280 5804 c-121 -21 -155 -30 -222 -55 -321 -124 -604 -507 -752
-1019 -104 -355 -143 -705 -133 -1190 12 -593 96 -1013 276 -1387 171 -352
375 -558 641 -647 317 -106 685 -5 990 270 l40 36 0 533 0 533 -65 52 -65 52
-59 -37 c-182 -110 -344 -103 -460 19 -86 91 -143 230 -172 421 -16 104 -16
398 0 500 38 233 141 420 266 480 96 46 241 27 368 -50 32 -19 61 -35 64 -35
3 0 34 23 69 51 l64 51 0 528 0 528 -85 73 c-221 191 -423 282 -649 293 -50 3
-102 3 -116 0z"/>
<path d="M25209 5785 c-189 -38 -380 -168 -535 -366 l-49 -62 -5 105 c-5 103
-5 105 -45 156 l-39 52 -471 0 -471 0 -42 -57 -42 -57 0 -1929 0 -1929 46 -59
47 -59 463 0 463 0 45 59 45 59 4 1243 c3 1084 5 1251 18 1300 31 114 75 156
171 166 48 5 57 2 85 -21 44 -37 81 -117 93 -201 6 -43 10 -528 10 -1280 l0
-1210 45 -57 45 -58 465 0 464 0 45 59 46 59 0 1574 c0 1291 -3 1592 -14 1678
-52 386 -217 667 -461 785 -126 60 -282 79 -426 50z"/>
<path d="M21702 5616 l-42 -54 0 -1932 0 -1932 46 -59 45 -59 464 0 465 0 45
58 45 57 0 1933 0 1933 -41 54 -41 55 -472 0 -471 0 -43 -54z"/>
</g>
</svg>
